<?xml version="1.0" encoding="UTF-8" standalone="no"?>
<!DOCTYPE svg PUBLIC "-//W3C//DTD SVG 1.1//EN"
 "http://www.w3.org/Graphics/SVG/1.1/DTD/svg11.dtd">
<!-- Generated by graphviz version 12.2.1 (20241206.2353)
 -->
<!-- Title: dag Pages: 1 -->
<svg width="1605pt" height="506pt"
 viewBox="0.00 0.00 1605.26 506.00" xmlns="http://www.w3.org/2000/svg" xmlns:xlink="http://www.w3.org/1999/xlink">
<g id="graph0" class="graph" transform="scale(1 1) rotate(0) translate(4 502)">
<title>dag</title>
<polygon fill="white" stroke="none" points="-4,4 -4,-502 1601.26,-502 1601.26,4 -4,4"/>
<!-- EUF -->
<g id="node1" class="node">
<title>EUF</title>
<ellipse fill="none" stroke="black" cx="826.11" cy="-391.5" rx="70.8" ry="18"/>
<text text-anchor="middle" x="826.11" y="-386.45" font-family="Times New Roman,serif" font-size="14.00">EU funding p.c.</text>
</g>
<!-- INC -->
<g id="node2" class="node">
<title>INC</title>
<ellipse fill="none" stroke="black" cx="841.11" cy="-106.5" rx="55.45" ry="18"/>
<text text-anchor="middle" x="841.11" y="-101.45" font-family="Times New Roman,serif" font-size="14.00">Income p.c.</text>
</g>
<!-- EUF&#45;&gt;INC -->
<g id="edge1" class="edge">
<title>EUF&#45;&gt;INC</title>
<path fill="none" stroke="black" d="M863.97,-375.96C887.33,-364.77 915.39,-346.81 929.11,-321 959.15,-264.49 957.01,-234.6 929.11,-177 918.96,-156.06 899.11,-139.52 880.82,-127.84"/>
<polygon fill="black" stroke="black" points="882.85,-124.98 872.48,-122.8 879.23,-130.97 882.85,-124.98"/>
<text text-anchor="middle" x="954.97" y="-243.95" font-family="Times New Roman,serif" font-size="14.00">+</text>
</g>
<!-- BGR -->
<g id="node9" class="node">
<title>BGR</title>
<ellipse fill="none" stroke="black" cx="782.11" cy="-249" rx="104.07" ry="18"/>
<text text-anchor="middle" x="782.11" y="-243.95" font-family="Times New Roman,serif" font-size="14.00">Business revenue growth</text>
</g>
<!-- EUF&#45;&gt;BGR -->
<g id="edge2" class="edge">
<title>EUF&#45;&gt;BGR</title>
<path fill="none" stroke="black" d="M792.52,-375.41C771.24,-363.86 745.48,-345.69 733.11,-321 725.94,-306.7 725.79,-299.23 733.11,-285 735.17,-280.98 737.94,-277.33 741.11,-274.02"/>
<polygon fill="black" stroke="black" points="743.3,-276.75 748.51,-267.52 738.68,-271.49 743.3,-276.75"/>
<text text-anchor="middle" x="765.78" y="-342.2" font-family="Times New Roman,serif" font-size="14.00">+</text>
</g>
<!-- INFR -->
<g id="node10" class="node">
<title>INFR</title>
<ellipse fill="none" stroke="black" cx="831.11" cy="-303" rx="89.23" ry="18"/>
<text text-anchor="middle" x="831.11" y="-297.95" font-family="Times New Roman,serif" font-size="14.00">Infrastructure quality</text>
</g>
<!-- EUF&#45;&gt;INFR -->
<g id="edge3" class="edge">
<title>EUF&#45;&gt;INFR</title>
<path fill="none" stroke="black" d="M827.09,-373.41C827.77,-361.76 828.68,-346.05 829.46,-332.52"/>
<polygon fill="black" stroke="black" points="832.93,-333.05 830.02,-322.86 825.95,-332.64 832.93,-333.05"/>
<text text-anchor="middle" x="833.18" y="-342.2" font-family="Times New Roman,serif" font-size="14.00">+</text>
</g>
<!-- MSPE -->
<g id="node16" class="node">
<title>MSPE</title>
<ellipse fill="none" stroke="black" cx="1030.11" cy="-18" rx="94.86" ry="18"/>
<text text-anchor="middle" x="1030.11" y="-12.95" font-family="Times New Roman,serif" font-size="14.00">Municipality spending</text>
</g>
<!-- EUF&#45;&gt;MSPE -->
<g id="edge26" class="edge">
<title>EUF&#45;&gt;MSPE</title>
<path fill="none" stroke="black" d="M892.54,-384.82C981.18,-375.37 1127.11,-352.46 1127.11,-304 1127.11,-304 1127.11,-304 1127.11,-105.5 1127.11,-76.45 1102.57,-54.74 1078.18,-40.33"/>
<polygon fill="black" stroke="black" points="1079.93,-37.31 1069.49,-35.53 1076.55,-43.43 1079.93,-37.31"/>
<text text-anchor="middle" x="1131.23" y="-189.95" font-family="Times New Roman,serif" font-size="14.00">+</text>
</g>
<!-- POL -->
<g id="node8" class="node">
<title>POL</title>
<ellipse fill="none" stroke="black" cx="748.11" cy="-18" rx="71.31" ry="18"/>
<text text-anchor="middle" x="748.11" y="-12.95" font-family="Times New Roman,serif" font-size="14.00">Pro&#45;government</text>
</g>
<!-- INC&#45;&gt;POL -->
<g id="edge23" class="edge">
<title>INC&#45;&gt;POL</title>
<path fill="none" stroke="black" d="M823.61,-89.23C809.76,-76.35 790.19,-58.15 774.45,-43.5"/>
<polygon fill="black" stroke="black" points="776.97,-41.07 767.26,-36.82 772.2,-46.19 776.97,-41.07"/>
<text text-anchor="middle" x="807.06" y="-57.2" font-family="Times New Roman,serif" font-size="14.00">+</text>
</g>
<!-- INC&#45;&gt;MSPE -->
<g id="edge27" class="edge">
<title>INC&#45;&gt;MSPE</title>
<path fill="none" stroke="black" d="M872.32,-91.22C902.91,-77.21 949.89,-55.71 984.63,-39.81"/>
<polygon fill="black" stroke="black" points="985.98,-43.04 993.62,-35.7 983.07,-36.68 985.98,-43.04"/>
<text text-anchor="middle" x="956.66" y="-57.2" font-family="Times New Roman,serif" font-size="14.00">+</text>
</g>
<!-- UNEMP -->
<g id="node3" class="node">
<title>UNEMP</title>
<ellipse fill="none" stroke="black" cx="1154.11" cy="-480" rx="69.26" ry="18"/>
<text text-anchor="middle" x="1154.11" y="-474.95" font-family="Times New Roman,serif" font-size="14.00">Unemployment</text>
</g>
<!-- UNEMP&#45;&gt;EUF -->
<g id="edge7" class="edge">
<title>UNEMP&#45;&gt;EUF</title>
<path fill="none" stroke="black" d="M1103.23,-467.39C1093.91,-465.45 1084.23,-463.56 1075.11,-462 1012.73,-451.33 994.57,-461.87 933.86,-444 926.85,-441.94 894.88,-426.53 867.57,-413.09"/>
<polygon fill="black" stroke="black" points="869.26,-410.03 858.75,-408.75 866.17,-416.31 869.26,-410.03"/>
<text text-anchor="middle" x="937.98" y="-430.7" font-family="Times New Roman,serif" font-size="14.00">+</text>
</g>
<!-- UNEMP&#45;&gt;INC -->
<g id="edge8" class="edge">
<title>UNEMP&#45;&gt;INC</title>
<path fill="none" stroke="black" d="M1106.6,-466.47C1092.77,-461.18 1078.37,-453.88 1067.11,-444 1047.36,-426.67 1038.11,-418.77 1038.11,-392.5 1038.11,-392.5 1038.11,-392.5 1038.11,-194 1038.11,-135.69 964.87,-116.33 907.7,-110.1"/>
<polygon fill="black" stroke="black" points="908.3,-106.64 898.01,-109.17 907.63,-113.61 908.3,-106.64"/>
<text text-anchor="middle" x="1041.48" y="-297.95" font-family="Times New Roman,serif" font-size="14.00">–</text>
</g>
<!-- IND -->
<g id="node4" class="node">
<title>IND</title>
<ellipse fill="none" stroke="black" cx="277.11" cy="-480" rx="91.27" ry="18"/>
<text text-anchor="middle" x="277.11" y="-474.95" font-family="Times New Roman,serif" font-size="14.00">Industry employment</text>
</g>
<!-- IND&#45;&gt;EUF -->
<g id="edge9" class="edge">
<title>IND&#45;&gt;EUF</title>
<path fill="none" stroke="black" d="M343.19,-467.25C354.49,-465.39 366.12,-463.57 377.11,-462 446.2,-452.15 464.34,-455.92 533.11,-444 565.03,-438.47 572.31,-433.69 604.11,-427.5 653.85,-417.81 710.27,-408.94 753.78,-402.56"/>
<polygon fill="black" stroke="black" points="754.24,-406.03 763.63,-401.13 753.23,-399.1 754.24,-406.03"/>
<text text-anchor="middle" x="607.11" y="-430.7" font-family="Times New Roman,serif" font-size="14.00">?</text>
</g>
<!-- IND&#45;&gt;INC -->
<g id="edge10" class="edge">
<title>IND&#45;&gt;INC</title>
<path fill="none" stroke="black" d="M303.46,-462.56C324.37,-447.26 350.11,-422.37 350.11,-392.5 350.11,-392.5 350.11,-392.5 350.11,-194 350.11,-123.51 431.27,-157.64 500.11,-142.5 594.12,-121.82 705.46,-113.3 774.7,-109.83"/>
<polygon fill="black" stroke="black" points="774.53,-113.34 784.35,-109.37 774.2,-106.35 774.53,-113.34"/>
<text text-anchor="middle" x="353.11" y="-297.95" font-family="Times New Roman,serif" font-size="14.00">?</text>
</g>
<!-- AGR -->
<g id="node5" class="node">
<title>AGR</title>
<ellipse fill="none" stroke="black" cx="84.11" cy="-480" rx="84.11" ry="18"/>
<text text-anchor="middle" x="84.11" y="-474.95" font-family="Times New Roman,serif" font-size="14.00">Agric. employment</text>
</g>
<!-- AGR&#45;&gt;EUF -->
<g id="edge11" class="edge">
<title>AGR&#45;&gt;EUF</title>
<path fill="none" stroke="black" d="M145.03,-467.2C155.7,-465.32 166.71,-463.5 177.11,-462 382.45,-432.28 626.04,-409.52 748.14,-398.97"/>
<polygon fill="black" stroke="black" points="748.4,-402.46 758.06,-398.12 747.8,-395.48 748.4,-402.46"/>
<text text-anchor="middle" x="448.03" y="-430.7" font-family="Times New Roman,serif" font-size="14.00">+</text>
</g>
<!-- AGR&#45;&gt;INC -->
<g id="edge12" class="edge">
<title>AGR&#45;&gt;INC</title>
<path fill="none" stroke="black" d="M111.18,-462.73C132.67,-447.54 159.11,-422.71 159.11,-392.5 159.11,-392.5 159.11,-392.5 159.11,-194 159.11,-132.42 602.36,-113.91 774.18,-109.05"/>
<polygon fill="black" stroke="black" points="774.17,-112.55 784.07,-108.78 773.98,-105.55 774.17,-112.55"/>
<text text-anchor="middle" x="162.48" y="-297.95" font-family="Times New Roman,serif" font-size="14.00">–</text>
</g>
<!-- HPR -->
<g id="node6" class="node">
<title>HPR</title>
<ellipse fill="none" stroke="black" cx="645.11" cy="-480" rx="80.52" ry="18"/>
<text text-anchor="middle" x="645.11" y="-474.95" font-family="Times New Roman,serif" font-size="14.00">Heigh prest. empl.</text>
</g>
<!-- HPR&#45;&gt;EUF -->
<g id="edge13" class="edge">
<title>HPR&#45;&gt;EUF</title>
<path fill="none" stroke="black" d="M678.31,-463.13C707.96,-448.96 751.55,-428.13 783.72,-412.76"/>
<polygon fill="black" stroke="black" points="784.85,-416.1 792.36,-408.63 781.83,-409.78 784.85,-416.1"/>
<text text-anchor="middle" x="755.19" y="-430.7" font-family="Times New Roman,serif" font-size="14.00">–</text>
</g>
<!-- HPR&#45;&gt;INC -->
<g id="edge14" class="edge">
<title>HPR&#45;&gt;INC</title>
<path fill="none" stroke="black" d="M635.94,-461.64C627.77,-444.54 617.11,-417.44 617.11,-392.5 617.11,-392.5 617.11,-392.5 617.11,-194 617.11,-158.58 715.79,-132.07 782.16,-118.25"/>
<polygon fill="black" stroke="black" points="782.74,-121.7 791.85,-116.28 781.35,-114.84 782.74,-121.7"/>
<text text-anchor="middle" x="621.23" y="-297.95" font-family="Times New Roman,serif" font-size="14.00">+</text>
</g>
<!-- PDENSE -->
<g id="node7" class="node">
<title>PDENSE</title>
<ellipse fill="none" stroke="black" cx="466.11" cy="-480" rx="80.01" ry="18"/>
<text text-anchor="middle" x="466.11" y="-474.95" font-family="Times New Roman,serif" font-size="14.00">Population density</text>
</g>
<!-- PDENSE&#45;&gt;EUF -->
<g id="edge15" class="edge">
<title>PDENSE&#45;&gt;EUF</title>
<path fill="none" stroke="black" d="M519.23,-466.24C584.72,-450.5 695.81,-423.81 764.84,-407.22"/>
<polygon fill="black" stroke="black" points="765.59,-410.64 774.49,-404.9 763.95,-403.83 765.59,-410.64"/>
<text text-anchor="middle" x="682.48" y="-430.7" font-family="Times New Roman,serif" font-size="14.00">+</text>
</g>
<!-- PDENSE&#45;&gt;INC -->
<g id="edge16" class="edge">
<title>PDENSE&#45;&gt;INC</title>
<path fill="none" stroke="black" d="M468.32,-461.8C470.37,-444.37 473.11,-416.61 473.11,-392.5 473.11,-392.5 473.11,-392.5 473.11,-194 473.11,-132.74 668.83,-114.82 774.8,-109.62"/>
<polygon fill="black" stroke="black" points="774.67,-113.13 784.5,-109.17 774.35,-106.13 774.67,-113.13"/>
<text text-anchor="middle" x="477.23" y="-297.95" font-family="Times New Roman,serif" font-size="14.00">+</text>
</g>
<!-- POL&#45;&gt;EUF -->
<g id="edge24" class="edge">
<title>POL&#45;&gt;EUF</title>
<path fill="none" stroke="black" d="M717.42,-34.38C693.07,-49 663.11,-73.5 663.11,-105.5 663.11,-304 663.11,-304 663.11,-304 663.11,-347.76 709.52,-369.45 752.82,-380.16"/>
<polygon fill="black" stroke="black" points="752.02,-383.57 762.54,-382.38 753.57,-376.75 752.02,-383.57"/>
<text text-anchor="middle" x="667.23" y="-189.95" font-family="Times New Roman,serif" font-size="14.00">+</text>
</g>
<!-- BGR&#45;&gt;INC -->
<g id="edge4" class="edge">
<title>BGR&#45;&gt;INC</title>
<path fill="none" stroke="black" d="M758.26,-231.1C752.84,-225.96 747.82,-219.84 744.86,-213 738.5,-198.32 737.57,-191.25 744.86,-177 756.18,-154.87 778.2,-138.16 798.32,-126.68"/>
<polygon fill="black" stroke="black" points="799.82,-129.85 806.97,-122.03 796.5,-123.69 799.82,-129.85"/>
<text text-anchor="middle" x="748.98" y="-189.95" font-family="Times New Roman,serif" font-size="14.00">+</text>
</g>
<!-- ECA -->
<g id="node11" class="node">
<title>ECA</title>
<ellipse fill="none" stroke="black" cx="841.11" cy="-195" rx="78.99" ry="18"/>
<text text-anchor="middle" x="841.11" y="-189.95" font-family="Times New Roman,serif" font-size="14.00">Economic activity</text>
</g>
<!-- INFR&#45;&gt;ECA -->
<g id="edge5" class="edge">
<title>INFR&#45;&gt;ECA</title>
<path fill="none" stroke="black" d="M868.1,-286.3C875.7,-281.29 882.72,-274.92 887.11,-267 894.86,-253.01 894.21,-245.34 887.11,-231 885,-226.75 882.11,-222.88 878.78,-219.39"/>
<polygon fill="black" stroke="black" points="881.35,-216.99 871.56,-212.95 876.69,-222.21 881.35,-216.99"/>
<text text-anchor="middle" x="896.81" y="-243.95" font-family="Times New Roman,serif" font-size="14.00">+</text>
</g>
<!-- ECA&#45;&gt;INC -->
<g id="edge6" class="edge">
<title>ECA&#45;&gt;INC</title>
<path fill="none" stroke="black" d="M841.11,-176.91C841.11,-165.26 841.11,-149.55 841.11,-136.02"/>
<polygon fill="black" stroke="black" points="844.61,-136.36 841.11,-126.36 837.61,-136.36 844.61,-136.36"/>
<text text-anchor="middle" x="845.23" y="-145.7" font-family="Times New Roman,serif" font-size="14.00">+</text>
</g>
<!-- EDUC -->
<g id="node12" class="node">
<title>EDUC</title>
<ellipse fill="none" stroke="black" cx="994.11" cy="-480" rx="72.34" ry="18"/>
<text text-anchor="middle" x="994.11" y="-474.95" font-family="Times New Roman,serif" font-size="14.00">Education levels</text>
</g>
<!-- EDUC&#45;&gt;EUF -->
<g id="edge19" class="edge">
<title>EDUC&#45;&gt;EUF</title>
<path fill="none" stroke="black" d="M944.34,-466.54C926.26,-460.97 906.06,-453.49 888.86,-444 875.55,-436.66 862.33,-426.37 851.47,-416.91"/>
<polygon fill="black" stroke="black" points="853.86,-414.35 844.08,-410.26 849.17,-419.56 853.86,-414.35"/>
<text text-anchor="middle" x="892.98" y="-430.7" font-family="Times New Roman,serif" font-size="14.00">+</text>
</g>
<!-- EDUC&#45;&gt;INC -->
<g id="edge20" class="edge">
<title>EDUC&#45;&gt;INC</title>
<path fill="none" stroke="black" d="M994.11,-461.77C994.11,-444.31 994.11,-416.53 994.11,-392.5 994.11,-392.5 994.11,-392.5 994.11,-194 994.11,-149.74 945,-127.87 902.42,-117.22"/>
<polygon fill="black" stroke="black" points="903.21,-113.81 892.68,-114.97 901.63,-120.63 903.21,-113.81"/>
<text text-anchor="middle" x="998.23" y="-297.95" font-family="Times New Roman,serif" font-size="14.00">+</text>
</g>
<!-- SPILL -->
<g id="node13" class="node">
<title>SPILL</title>
<ellipse fill="none" stroke="black" cx="1324.11" cy="-480" rx="82.57" ry="18"/>
<text text-anchor="middle" x="1324.11" y="-474.95" font-family="Times New Roman,serif" font-size="14.00">Regional spillovers</text>
</g>
<!-- SPILL&#45;&gt;EUF -->
<g id="edge17" class="edge">
<title>SPILL&#45;&gt;EUF</title>
<path fill="none" stroke="black" d="M1264.34,-467.25C1253.63,-465.34 1242.56,-463.51 1232.11,-462 1155.48,-450.96 1135.27,-456.38 1058.86,-444 999.6,-434.4 932.78,-419.15 885.98,-407.73"/>
<polygon fill="black" stroke="black" points="886.85,-404.34 876.3,-405.35 885.18,-411.13 886.85,-404.34"/>
<text text-anchor="middle" x="1062.98" y="-430.7" font-family="Times New Roman,serif" font-size="14.00">+</text>
</g>
<!-- SPILL&#45;&gt;INC -->
<g id="edge18" class="edge">
<title>SPILL&#45;&gt;INC</title>
<path fill="none" stroke="black" d="M1262.6,-467.7C1217.81,-459.26 1163.28,-448.44 1153.11,-444 1117.05,-428.27 1081.11,-431.84 1081.11,-392.5 1081.11,-392.5 1081.11,-392.5 1081.11,-194 1081.11,-162.71 1060.56,-157.51 1033.11,-142.5 994.82,-121.56 946.46,-112.83 907.86,-109.33"/>
<polygon fill="black" stroke="black" points="908.49,-105.87 898.24,-108.56 907.93,-112.85 908.49,-105.87"/>
<text text-anchor="middle" x="1085.23" y="-297.95" font-family="Times New Roman,serif" font-size="14.00">+</text>
</g>
<!-- EUCYCL -->
<g id="node14" class="node">
<title>EUCYCL</title>
<ellipse fill="none" stroke="black" cx="824.11" cy="-480" rx="80.01" ry="18"/>
<text text-anchor="middle" x="824.11" y="-474.95" font-family="Times New Roman,serif" font-size="14.00">EU funding cycles</text>
</g>
<!-- EUCYCL&#45;&gt;EUF -->
<g id="edge25" class="edge">
<title>EUCYCL&#45;&gt;EUF</title>
<path fill="none" stroke="black" d="M824.5,-461.91C824.77,-450.26 825.13,-434.55 825.45,-421.02"/>
<polygon fill="black" stroke="black" points="828.94,-421.44 825.67,-411.36 821.94,-421.28 828.94,-421.44"/>
<text text-anchor="middle" x="828.29" y="-430.7" font-family="Times New Roman,serif" font-size="14.00">?</text>
</g>
<!-- BURQL -->
<g id="node15" class="node">
<title>BURQL</title>
<ellipse fill="none" stroke="black" cx="1511.11" cy="-480" rx="86.15" ry="18"/>
<text text-anchor="middle" x="1511.11" y="-474.95" font-family="Times New Roman,serif" font-size="14.00">Bureaucratic quality</text>
</g>
<!-- BURQL&#45;&gt;EUF -->
<g id="edge21" class="edge">
<title>BURQL&#45;&gt;EUF</title>
<path fill="none" stroke="black" d="M1448.6,-467.27C1437.78,-465.39 1426.63,-463.56 1416.11,-462 1232.4,-434.77 1015.22,-411.46 902.55,-400.03"/>
<polygon fill="black" stroke="black" points="903.13,-396.57 892.82,-399.05 902.42,-403.53 903.13,-396.57"/>
<text text-anchor="middle" x="1274.93" y="-430.7" font-family="Times New Roman,serif" font-size="14.00">+</text>
</g>
<!-- BURQL&#45;&gt;INC -->
<g id="edge22" class="edge">
<title>BURQL&#45;&gt;INC</title>
<path fill="none" stroke="black" d="M1463.58,-464.74C1413.6,-448.28 1342.11,-419.94 1342.11,-392.5 1342.11,-392.5 1342.11,-392.5 1342.11,-194 1342.11,-150.31 1042.47,-122.46 906.65,-112.08"/>
<polygon fill="black" stroke="black" points="906.94,-108.6 896.71,-111.33 906.42,-115.58 906.94,-108.6"/>
<text text-anchor="middle" x="1346.23" y="-297.95" font-family="Times New Roman,serif" font-size="14.00">+</text>
</g>
</g>
</svg>
