<?xml version="1.0" encoding="UTF-8" standalone="no"?>
<!DOCTYPE svg PUBLIC "-//W3C//DTD SVG 1.1//EN"
 "http://www.w3.org/Graphics/SVG/1.1/DTD/svg11.dtd">
<!-- Generated by graphviz version 12.2.1 (20241206.2353)
 -->
<!-- Title: dag Pages: 1 -->
<svg width="1605pt" height="398pt"
 viewBox="0.00 0.00 1605.26 398.00" xmlns="http://www.w3.org/2000/svg" xmlns:xlink="http://www.w3.org/1999/xlink">
<g id="graph0" class="graph" transform="scale(1 1) rotate(0) translate(4 394)">
<title>dag</title>
<polygon fill="white" stroke="none" points="-4,4 -4,-394 1601.26,-394 1601.26,4 -4,4"/>
<!-- EUF -->
<g id="node1" class="node">
<title>EUF</title>
<ellipse fill="none" stroke="black" cx="843.11" cy="-283.5" rx="70.8" ry="18"/>
<text text-anchor="middle" x="843.11" y="-278.45" font-family="Times New Roman,serif" font-size="14.00">EU funding p.c.</text>
</g>
<!-- INC -->
<g id="node2" class="node">
<title>INC</title>
<ellipse fill="none" stroke="black" cx="900.11" cy="-106.5" rx="55.45" ry="18"/>
<text text-anchor="middle" x="900.11" y="-101.45" font-family="Times New Roman,serif" font-size="14.00">Income p.c.</text>
</g>
<!-- EUF&#45;&gt;INC -->
<g id="edge1" class="edge">
<title>EUF&#45;&gt;INC</title>
<path fill="none" stroke="black" d="M900.92,-272.69C935.48,-263.53 976.71,-246.05 998.11,-213 1019.72,-179.63 976.65,-147 940.93,-127.07"/>
<polygon fill="black" stroke="black" points="942.91,-124.16 932.44,-122.52 939.6,-130.33 942.91,-124.16"/>
<text text-anchor="middle" x="1008.03" y="-189.95" font-family="Times New Roman,serif" font-size="14.00">+</text>
</g>
<!-- BGR -->
<g id="node9" class="node">
<title>BGR</title>
<ellipse fill="none" stroke="black" cx="720.11" cy="-195" rx="72.34" ry="18"/>
<text text-anchor="middle" x="720.11" y="-189.95" font-family="Times New Roman,serif" font-size="14.00">Business growth</text>
</g>
<!-- EUF&#45;&gt;BGR -->
<g id="edge2" class="edge">
<title>EUF&#45;&gt;BGR</title>
<path fill="none" stroke="black" d="M819.97,-266.23C801.02,-252.9 773.98,-233.89 752.82,-219"/>
<polygon fill="black" stroke="black" points="754.99,-216.25 744.79,-213.36 750.96,-221.98 754.99,-216.25"/>
<text text-anchor="middle" x="796.75" y="-234.2" font-family="Times New Roman,serif" font-size="14.00">+</text>
</g>
<!-- INFR -->
<g id="node10" class="node">
<title>INFR</title>
<ellipse fill="none" stroke="black" cx="900.11" cy="-195" rx="89.23" ry="18"/>
<text text-anchor="middle" x="900.11" y="-189.95" font-family="Times New Roman,serif" font-size="14.00">Infrastructure quality</text>
</g>
<!-- EUF&#45;&gt;INFR -->
<g id="edge3" class="edge">
<title>EUF&#45;&gt;INFR</title>
<path fill="none" stroke="black" d="M854.37,-265.41C862.41,-253.21 873.38,-236.55 882.57,-222.62"/>
<polygon fill="black" stroke="black" points="885.46,-224.59 888.04,-214.32 879.61,-220.74 885.46,-224.59"/>
<text text-anchor="middle" x="880.84" y="-234.2" font-family="Times New Roman,serif" font-size="14.00">+</text>
</g>
<!-- MSPE -->
<g id="node15" class="node">
<title>MSPE</title>
<ellipse fill="none" stroke="black" cx="1072.11" cy="-18" rx="94.86" ry="18"/>
<text text-anchor="middle" x="1072.11" y="-12.95" font-family="Times New Roman,serif" font-size="14.00">Municipality spending</text>
</g>
<!-- EUF&#45;&gt;MSPE -->
<g id="edge25" class="edge">
<title>EUF&#45;&gt;MSPE</title>
<path fill="none" stroke="black" d="M912.35,-279.32C997.7,-274.68 1133.43,-264.68 1149.11,-247.5 1202.94,-188.51 1133.77,-90.54 1095.04,-44.45"/>
<polygon fill="black" stroke="black" points="1097.89,-42.41 1088.73,-37.1 1092.58,-46.97 1097.89,-42.41"/>
<text text-anchor="middle" x="1167.12" y="-145.7" font-family="Times New Roman,serif" font-size="14.00">+</text>
</g>
<!-- POL -->
<g id="node8" class="node">
<title>POL</title>
<ellipse fill="none" stroke="black" cx="760.11" cy="-18" rx="71.31" ry="18"/>
<text text-anchor="middle" x="760.11" y="-12.95" font-family="Times New Roman,serif" font-size="14.00">Pro&#45;government</text>
</g>
<!-- INC&#45;&gt;POL -->
<g id="edge22" class="edge">
<title>INC&#45;&gt;POL</title>
<path fill="none" stroke="black" d="M875.08,-90.04C853.1,-76.45 820.85,-56.53 796.1,-41.24"/>
<polygon fill="black" stroke="black" points="797.98,-38.29 787.63,-36.01 794.3,-44.24 797.98,-38.29"/>
<text text-anchor="middle" x="846.77" y="-57.2" font-family="Times New Roman,serif" font-size="14.00">+</text>
</g>
<!-- INC&#45;&gt;MSPE -->
<g id="edge26" class="edge">
<title>INC&#45;&gt;MSPE</title>
<path fill="none" stroke="black" d="M929.28,-90.83C956.75,-77.01 998.22,-56.16 1029.41,-40.47"/>
<polygon fill="black" stroke="black" points="1030.84,-43.67 1038.21,-36.05 1027.7,-37.42 1030.84,-43.67"/>
<text text-anchor="middle" x="1005.64" y="-57.2" font-family="Times New Roman,serif" font-size="14.00">+</text>
</g>
<!-- UNEMP -->
<g id="node3" class="node">
<title>UNEMP</title>
<ellipse fill="none" stroke="black" cx="1154.11" cy="-372" rx="69.26" ry="18"/>
<text text-anchor="middle" x="1154.11" y="-366.95" font-family="Times New Roman,serif" font-size="14.00">Unemployment</text>
</g>
<!-- UNEMP&#45;&gt;EUF -->
<g id="edge6" class="edge">
<title>UNEMP&#45;&gt;EUF</title>
<path fill="none" stroke="black" d="M1102.07,-359.78C1055.98,-349.83 995.57,-336.76 992.86,-336 958.7,-326.45 920.93,-313.45 891.87,-302.9"/>
<polygon fill="black" stroke="black" points="893.2,-299.66 882.61,-299.51 890.8,-306.23 893.2,-299.66"/>
<text text-anchor="middle" x="996.98" y="-322.7" font-family="Times New Roman,serif" font-size="14.00">+</text>
</g>
<!-- UNEMP&#45;&gt;INC -->
<g id="edge7" class="edge">
<title>UNEMP&#45;&gt;INC</title>
<path fill="none" stroke="black" d="M1137.81,-354.22C1132.8,-348.65 1127.47,-342.26 1123.11,-336 1066.48,-254.62 1093.15,-199.62 1012.11,-142.5 996.59,-131.57 977.54,-123.96 959.57,-118.7"/>
<polygon fill="black" stroke="black" points="960.6,-115.35 950.03,-116.11 958.77,-122.1 960.6,-115.35"/>
<text text-anchor="middle" x="1085.34" y="-234.2" font-family="Times New Roman,serif" font-size="14.00">–</text>
</g>
<!-- IND -->
<g id="node4" class="node">
<title>IND</title>
<ellipse fill="none" stroke="black" cx="277.11" cy="-372" rx="91.27" ry="18"/>
<text text-anchor="middle" x="277.11" y="-366.95" font-family="Times New Roman,serif" font-size="14.00">Industry employment</text>
</g>
<!-- IND&#45;&gt;EUF -->
<g id="edge8" class="edge">
<title>IND&#45;&gt;EUF</title>
<path fill="none" stroke="black" d="M343.76,-359.37C354.89,-357.51 366.32,-355.66 377.11,-354 435.19,-345.07 449.98,-344.65 508.11,-336 553.96,-329.18 565.3,-326.62 611.11,-319.5 664.91,-311.13 725.78,-301.96 771.67,-295.11"/>
<polygon fill="black" stroke="black" points="772.13,-298.58 781.5,-293.64 771.09,-291.65 772.13,-298.58"/>
<text text-anchor="middle" x="614.11" y="-322.7" font-family="Times New Roman,serif" font-size="14.00">?</text>
</g>
<!-- IND&#45;&gt;INC -->
<g id="edge9" class="edge">
<title>IND&#45;&gt;INC</title>
<path fill="none" stroke="black" d="M292.46,-353.77C333.83,-308.75 453.26,-187.94 582.11,-142.5 627.16,-126.61 755.28,-116.27 834.47,-111.2"/>
<polygon fill="black" stroke="black" points="834.51,-114.7 844.27,-110.58 834.07,-107.72 834.51,-114.7"/>
<text text-anchor="middle" x="426.77" y="-234.2" font-family="Times New Roman,serif" font-size="14.00">?</text>
</g>
<!-- AGR -->
<g id="node5" class="node">
<title>AGR</title>
<ellipse fill="none" stroke="black" cx="84.11" cy="-372" rx="84.11" ry="18"/>
<text text-anchor="middle" x="84.11" y="-366.95" font-family="Times New Roman,serif" font-size="14.00">Agric. employment</text>
</g>
<!-- AGR&#45;&gt;EUF -->
<g id="edge10" class="edge">
<title>AGR&#45;&gt;EUF</title>
<path fill="none" stroke="black" d="M145.03,-359.19C155.7,-357.32 166.71,-355.5 177.11,-354 388.82,-323.41 640.26,-300.89 764.95,-290.64"/>
<polygon fill="black" stroke="black" points="765.06,-294.14 774.74,-289.84 764.49,-287.17 765.06,-294.14"/>
<text text-anchor="middle" x="454.98" y="-322.7" font-family="Times New Roman,serif" font-size="14.00">+</text>
</g>
<!-- AGR&#45;&gt;INC -->
<g id="edge11" class="edge">
<title>AGR&#45;&gt;INC</title>
<path fill="none" stroke="black" d="M107.32,-354.28C171.99,-308.86 361.3,-183.88 541.11,-142.5 641.32,-119.44 760.69,-111.56 833.4,-108.88"/>
<polygon fill="black" stroke="black" points="833.27,-112.38 843.15,-108.54 833.03,-105.39 833.27,-112.38"/>
<text text-anchor="middle" x="310.63" y="-234.2" font-family="Times New Roman,serif" font-size="14.00">–</text>
</g>
<!-- HPR -->
<g id="node6" class="node">
<title>HPR</title>
<ellipse fill="none" stroke="black" cx="645.11" cy="-372" rx="80.52" ry="18"/>
<text text-anchor="middle" x="645.11" y="-366.95" font-family="Times New Roman,serif" font-size="14.00">Heigh prest. empl.</text>
</g>
<!-- HPR&#45;&gt;EUF -->
<g id="edge12" class="edge">
<title>HPR&#45;&gt;EUF</title>
<path fill="none" stroke="black" d="M680.51,-355.54C713.51,-341.12 762.87,-319.55 798.54,-303.97"/>
<polygon fill="black" stroke="black" points="799.53,-307.36 807.29,-300.15 796.73,-300.94 799.53,-307.36"/>
<text text-anchor="middle" x="765.22" y="-322.7" font-family="Times New Roman,serif" font-size="14.00">–</text>
</g>
<!-- HPR&#45;&gt;INC -->
<g id="edge13" class="edge">
<title>HPR&#45;&gt;INC</title>
<path fill="none" stroke="black" d="M636.28,-353.78C616.16,-311.83 572.58,-203.3 626.11,-142.5 639.67,-127.09 757.65,-116.64 834.31,-111.4"/>
<polygon fill="black" stroke="black" points="834.51,-114.9 844.26,-110.74 834.05,-107.91 834.51,-114.9"/>
<text text-anchor="middle" x="606.41" y="-234.2" font-family="Times New Roman,serif" font-size="14.00">+</text>
</g>
<!-- PDENSE -->
<g id="node7" class="node">
<title>PDENSE</title>
<ellipse fill="none" stroke="black" cx="466.11" cy="-372" rx="80.01" ry="18"/>
<text text-anchor="middle" x="466.11" y="-366.95" font-family="Times New Roman,serif" font-size="14.00">Population density</text>
</g>
<!-- PDENSE&#45;&gt;EUF -->
<g id="edge14" class="edge">
<title>PDENSE&#45;&gt;EUF</title>
<path fill="none" stroke="black" d="M520.52,-358.51C589.57,-342.67 708.39,-315.41 780.94,-298.76"/>
<polygon fill="black" stroke="black" points="781.29,-302.27 790.26,-296.63 779.73,-295.45 781.29,-302.27"/>
<text text-anchor="middle" x="692.5" y="-322.7" font-family="Times New Roman,serif" font-size="14.00">+</text>
</g>
<!-- PDENSE&#45;&gt;INC -->
<g id="edge15" class="edge">
<title>PDENSE&#45;&gt;INC</title>
<path fill="none" stroke="black" d="M469.13,-353.73C471.33,-343.45 474.85,-330.34 480.11,-319.5 522.79,-231.43 526.52,-191.73 611.11,-142.5 647.7,-121.2 760.17,-112.79 833.54,-109.52"/>
<polygon fill="black" stroke="black" points="833.6,-113.02 843.45,-109.1 833.31,-106.03 833.6,-113.02"/>
<text text-anchor="middle" x="525.13" y="-234.2" font-family="Times New Roman,serif" font-size="14.00">+</text>
</g>
<!-- POL&#45;&gt;EUF -->
<g id="edge23" class="edge">
<title>POL&#45;&gt;EUF</title>
<path fill="none" stroke="black" d="M736.18,-35.29C689.29,-69.22 593.71,-149.57 639.11,-213 667.15,-252.18 718.61,-269.53 762.83,-277.1"/>
<polygon fill="black" stroke="black" points="762.27,-280.55 772.69,-278.63 763.35,-273.64 762.27,-280.55"/>
<text text-anchor="middle" x="639.31" y="-145.7" font-family="Times New Roman,serif" font-size="14.00">+</text>
</g>
<!-- BGR&#45;&gt;INC -->
<g id="edge4" class="edge">
<title>BGR&#45;&gt;INC</title>
<path fill="none" stroke="black" d="M752.29,-178.54C782.4,-164.07 827.48,-142.4 859.94,-126.8"/>
<polygon fill="black" stroke="black" points="861.14,-130.11 868.64,-122.62 858.11,-123.8 861.14,-130.11"/>
<text text-anchor="middle" x="830.35" y="-145.7" font-family="Times New Roman,serif" font-size="14.00">+</text>
</g>
<!-- INFR&#45;&gt;INC -->
<g id="edge5" class="edge">
<title>INFR&#45;&gt;INC</title>
<path fill="none" stroke="black" d="M900.11,-176.91C900.11,-165.26 900.11,-149.55 900.11,-136.02"/>
<polygon fill="black" stroke="black" points="903.61,-136.36 900.11,-126.36 896.61,-136.36 903.61,-136.36"/>
<text text-anchor="middle" x="904.23" y="-145.7" font-family="Times New Roman,serif" font-size="14.00">+</text>
</g>
<!-- EDUC -->
<g id="node11" class="node">
<title>EDUC</title>
<ellipse fill="none" stroke="black" cx="994.11" cy="-372" rx="72.34" ry="18"/>
<text text-anchor="middle" x="994.11" y="-366.95" font-family="Times New Roman,serif" font-size="14.00">Education levels</text>
</g>
<!-- EDUC&#45;&gt;EUF -->
<g id="edge18" class="edge">
<title>EDUC&#45;&gt;EUF</title>
<path fill="none" stroke="black" d="M965.05,-355.12C954.28,-349.18 941.98,-342.34 930.86,-336 913.99,-326.38 895.43,-315.53 879.74,-306.28"/>
<polygon fill="black" stroke="black" points="881.58,-303.3 871.19,-301.22 878.02,-309.33 881.58,-303.3"/>
<text text-anchor="middle" x="934.98" y="-322.7" font-family="Times New Roman,serif" font-size="14.00">+</text>
</g>
<!-- EDUC&#45;&gt;INC -->
<g id="edge19" class="edge">
<title>EDUC&#45;&gt;INC</title>
<path fill="none" stroke="black" d="M1028.07,-355.69C1035.68,-350.57 1042.77,-344.06 1047.11,-336 1056.49,-318.56 1077.6,-307.91 1016.11,-177 1007.83,-159.38 1004.72,-154.14 989.11,-142.5 978.19,-134.36 965.13,-127.84 952.42,-122.74"/>
<polygon fill="black" stroke="black" points="953.89,-119.56 943.3,-119.32 951.44,-126.11 953.89,-119.56"/>
<text text-anchor="middle" x="1049.41" y="-234.2" font-family="Times New Roman,serif" font-size="14.00">+</text>
</g>
<!-- SPILL -->
<g id="node12" class="node">
<title>SPILL</title>
<ellipse fill="none" stroke="black" cx="1324.11" cy="-372" rx="82.57" ry="18"/>
<text text-anchor="middle" x="1324.11" y="-366.95" font-family="Times New Roman,serif" font-size="14.00">Regional spillovers</text>
</g>
<!-- SPILL&#45;&gt;EUF -->
<g id="edge16" class="edge">
<title>SPILL&#45;&gt;EUF</title>
<path fill="none" stroke="black" d="M1263.28,-359.49C1252.89,-357.6 1242.2,-355.71 1232.11,-354 1180.12,-345.21 1166.82,-344.91 1114.86,-336 1044.12,-323.87 963.36,-308.35 908.38,-297.53"/>
<polygon fill="black" stroke="black" points="909.37,-294.16 898.89,-295.66 908.02,-301.03 909.37,-294.16"/>
<text text-anchor="middle" x="1118.98" y="-322.7" font-family="Times New Roman,serif" font-size="14.00">+</text>
</g>
<!-- SPILL&#45;&gt;INC -->
<g id="edge17" class="edge">
<title>SPILL&#45;&gt;INC</title>
<path fill="none" stroke="black" d="M1263.85,-359.28C1219.21,-350.4 1165.4,-339.2 1161.11,-336 1079.04,-274.79 1126.22,-191.09 1036.11,-142.5 1013.23,-130.16 985.82,-122.03 961.62,-116.74"/>
<polygon fill="black" stroke="black" points="962.37,-113.32 951.88,-114.74 960.97,-120.18 962.37,-113.32"/>
<text text-anchor="middle" x="1109.36" y="-234.2" font-family="Times New Roman,serif" font-size="14.00">+</text>
</g>
<!-- EUCYCL -->
<g id="node13" class="node">
<title>EUCYCL</title>
<ellipse fill="none" stroke="black" cx="824.11" cy="-372" rx="80.01" ry="18"/>
<text text-anchor="middle" x="824.11" y="-366.95" font-family="Times New Roman,serif" font-size="14.00">EU funding cycles</text>
</g>
<!-- EUCYCL&#45;&gt;EUF -->
<g id="edge24" class="edge">
<title>EUCYCL&#45;&gt;EUF</title>
<path fill="none" stroke="black" d="M827.86,-353.91C830.42,-342.26 833.87,-326.55 836.84,-313.02"/>
<polygon fill="black" stroke="black" points="840.24,-313.85 838.97,-303.33 833.41,-312.34 840.24,-313.85"/>
<text text-anchor="middle" x="838.31" y="-322.7" font-family="Times New Roman,serif" font-size="14.00">?</text>
</g>
<!-- BURQL -->
<g id="node14" class="node">
<title>BURQL</title>
<ellipse fill="none" stroke="black" cx="1511.11" cy="-372" rx="86.15" ry="18"/>
<text text-anchor="middle" x="1511.11" y="-366.95" font-family="Times New Roman,serif" font-size="14.00">Bureaucratic quality</text>
</g>
<!-- BURQL&#45;&gt;EUF -->
<g id="edge20" class="edge">
<title>BURQL&#45;&gt;EUF</title>
<path fill="none" stroke="black" d="M1448.34,-359.25C1437.6,-357.39 1426.55,-355.57 1416.11,-354 1238.56,-327.37 1028.88,-303.97 919,-292.33"/>
<polygon fill="black" stroke="black" points="919.53,-288.86 909.22,-291.29 918.8,-295.83 919.53,-288.86"/>
<text text-anchor="middle" x="1279.1" y="-322.7" font-family="Times New Roman,serif" font-size="14.00">+</text>
</g>
<!-- BURQL&#45;&gt;INC -->
<g id="edge21" class="edge">
<title>BURQL&#45;&gt;INC</title>
<path fill="none" stroke="black" d="M1493.22,-354.14C1445.76,-310.56 1311.02,-193.95 1175.11,-142.5 1107.42,-116.87 1024.35,-109.28 967.34,-107.37"/>
<polygon fill="black" stroke="black" points="967.54,-103.88 957.45,-107.1 967.35,-110.87 967.54,-103.88"/>
<text text-anchor="middle" x="1363.91" y="-234.2" font-family="Times New Roman,serif" font-size="14.00">+</text>
</g>
</g>
</svg>
