<?xml version="1.0" encoding="UTF-8" standalone="no"?>
<!DOCTYPE svg PUBLIC "-//W3C//DTD SVG 1.1//EN"
 "http://www.w3.org/Graphics/SVG/1.1/DTD/svg11.dtd">
<!-- Generated by graphviz version 12.2.1 (20241206.2353)
 -->
<!-- Title: dag Pages: 1 -->
<svg width="1821pt" height="506pt"
 viewBox="0.00 0.00 1821.44 506.00" xmlns="http://www.w3.org/2000/svg" xmlns:xlink="http://www.w3.org/1999/xlink">
<g id="graph0" class="graph" transform="scale(1 1) rotate(0) translate(4 502)">
<title>dag</title>
<polygon fill="white" stroke="none" points="-4,4 -4,-502 1817.44,-502 1817.44,4 -4,4"/>
<!-- EUF -->
<g id="node1" class="node">
<title>EUF</title>
<ellipse fill="none" stroke="black" cx="929.11" cy="-391.5" rx="70.8" ry="18"/>
<text text-anchor="middle" x="929.11" y="-386.45" font-family="Times New Roman,serif" font-size="14.00">EU funding p.c.</text>
</g>
<!-- INC -->
<g id="node2" class="node">
<title>INC</title>
<ellipse fill="none" stroke="black" cx="959.11" cy="-106.5" rx="55.45" ry="18"/>
<text text-anchor="middle" x="959.11" y="-101.45" font-family="Times New Roman,serif" font-size="14.00">Income p.c.</text>
</g>
<!-- EUF&#45;&gt;INC -->
<g id="edge1" class="edge">
<title>EUF&#45;&gt;INC</title>
<path fill="none" stroke="black" d="M918.72,-373.24C902.41,-343.96 874.02,-282.67 887.86,-231 897.71,-194.22 921.44,-157.06 938.82,-133.25"/>
<polygon fill="black" stroke="black" points="941.49,-135.52 944.68,-125.41 935.89,-131.32 941.49,-135.52"/>
<text text-anchor="middle" x="891.98" y="-243.95" font-family="Times New Roman,serif" font-size="14.00">+</text>
</g>
<!-- BGR -->
<g id="node9" class="node">
<title>BGR</title>
<ellipse fill="none" stroke="black" cx="1003.11" cy="-249" rx="104.07" ry="18"/>
<text text-anchor="middle" x="1003.11" y="-243.95" font-family="Times New Roman,serif" font-size="14.00">Business revenue growth</text>
</g>
<!-- EUF&#45;&gt;BGR -->
<g id="edge2" class="edge">
<title>EUF&#45;&gt;BGR</title>
<path fill="none" stroke="black" d="M928.15,-373.24C927.77,-350.96 930.06,-311.89 948.11,-285 951.1,-280.54 954.88,-276.52 959.05,-272.95"/>
<polygon fill="black" stroke="black" points="960.91,-275.93 966.81,-267.13 956.71,-270.33 960.91,-275.93"/>
<text text-anchor="middle" x="934.07" y="-342.2" font-family="Times New Roman,serif" font-size="14.00">+</text>
</g>
<!-- INFR -->
<g id="node10" class="node">
<title>INFR</title>
<ellipse fill="none" stroke="black" cx="1046.11" cy="-303" rx="89.23" ry="18"/>
<text text-anchor="middle" x="1046.11" y="-297.95" font-family="Times New Roman,serif" font-size="14.00">Infrastructure quality</text>
</g>
<!-- EUF&#45;&gt;INFR -->
<g id="edge3" class="edge">
<title>EUF&#45;&gt;INFR</title>
<path fill="none" stroke="black" d="M951.39,-374.03C969.25,-360.82 994.53,-342.13 1014.48,-327.38"/>
<polygon fill="black" stroke="black" points="1016.33,-330.37 1022.29,-321.61 1012.17,-324.74 1016.33,-330.37"/>
<text text-anchor="middle" x="1002.21" y="-342.2" font-family="Times New Roman,serif" font-size="14.00">+</text>
</g>
<!-- MSPE -->
<g id="node17" class="node">
<title>MSPE</title>
<ellipse fill="none" stroke="black" cx="1213.11" cy="-18" rx="94.86" ry="18"/>
<text text-anchor="middle" x="1213.11" y="-12.95" font-family="Times New Roman,serif" font-size="14.00">Municipality spending</text>
</g>
<!-- EUF&#45;&gt;MSPE -->
<g id="edge27" class="edge">
<title>EUF&#45;&gt;MSPE</title>
<path fill="none" stroke="black" d="M999.39,-388.55C1108.22,-383.59 1305.11,-366.04 1305.11,-304 1305.11,-304 1305.11,-304 1305.11,-105.5 1305.11,-77.21 1281.72,-55.45 1258.53,-40.84"/>
<polygon fill="black" stroke="black" points="1260.37,-37.86 1249.98,-35.79 1256.81,-43.89 1260.37,-37.86"/>
<text text-anchor="middle" x="1309.23" y="-189.95" font-family="Times New Roman,serif" font-size="14.00">+</text>
</g>
<!-- POL -->
<g id="node8" class="node">
<title>POL</title>
<ellipse fill="none" stroke="black" cx="876.11" cy="-18" rx="71.31" ry="18"/>
<text text-anchor="middle" x="876.11" y="-12.95" font-family="Times New Roman,serif" font-size="14.00">Pro&#45;government</text>
</g>
<!-- INC&#45;&gt;POL -->
<g id="edge23" class="edge">
<title>INC&#45;&gt;POL</title>
<path fill="none" stroke="black" d="M943.1,-88.82C930.9,-76.1 913.88,-58.37 900.06,-43.96"/>
<polygon fill="black" stroke="black" points="902.84,-41.81 893.39,-37.01 897.79,-46.65 902.84,-41.81"/>
<text text-anchor="middle" x="929.17" y="-57.2" font-family="Times New Roman,serif" font-size="14.00">+</text>
</g>
<!-- INC&#45;&gt;MSPE -->
<g id="edge28" class="edge">
<title>INC&#45;&gt;MSPE</title>
<path fill="none" stroke="black" d="M996.31,-92.83C1038.84,-78.35 1108.88,-54.49 1157.81,-37.83"/>
<polygon fill="black" stroke="black" points="1158.75,-41.21 1167.09,-34.67 1156.5,-34.58 1158.75,-41.21"/>
<text text-anchor="middle" x="1112.98" y="-57.2" font-family="Times New Roman,serif" font-size="14.00">+</text>
</g>
<!-- UNEMP -->
<g id="node3" class="node">
<title>UNEMP</title>
<ellipse fill="none" stroke="black" cx="613.11" cy="-480" rx="69.26" ry="18"/>
<text text-anchor="middle" x="613.11" y="-474.95" font-family="Times New Roman,serif" font-size="14.00">Unemployment</text>
</g>
<!-- UNEMP&#45;&gt;EUF -->
<g id="edge7" class="edge">
<title>UNEMP&#45;&gt;EUF</title>
<path fill="none" stroke="black" d="M659.39,-466.33C715.56,-450.96 810.27,-425.03 871.21,-408.35"/>
<polygon fill="black" stroke="black" points="872,-411.76 880.72,-405.75 870.15,-405.01 872,-411.76"/>
<text text-anchor="middle" x="803.54" y="-430.7" font-family="Times New Roman,serif" font-size="14.00">+</text>
</g>
<!-- UNEMP&#45;&gt;INC -->
<g id="edge8" class="edge">
<title>UNEMP&#45;&gt;INC</title>
<path fill="none" stroke="black" d="M640.16,-463.03C647.2,-457.75 654.17,-451.32 659.11,-444 672.36,-424.33 673.11,-416.22 673.11,-392.5 673.11,-392.5 673.11,-392.5 673.11,-194 673.11,-147.94 810.74,-124.16 895.05,-113.91"/>
<polygon fill="black" stroke="black" points="895.29,-117.41 904.81,-112.76 894.47,-110.45 895.29,-117.41"/>
<text text-anchor="middle" x="676.48" y="-297.95" font-family="Times New Roman,serif" font-size="14.00">–</text>
</g>
<!-- IND -->
<g id="node4" class="node">
<title>IND</title>
<ellipse fill="none" stroke="black" cx="1559.11" cy="-480" rx="91.27" ry="18"/>
<text text-anchor="middle" x="1559.11" y="-474.95" font-family="Times New Roman,serif" font-size="14.00">Industry employment</text>
</g>
<!-- IND&#45;&gt;EUF -->
<g id="edge9" class="edge">
<title>IND&#45;&gt;EUF</title>
<path fill="none" stroke="black" d="M1493.87,-467.07C1482.32,-465.2 1470.38,-463.42 1459.11,-462 1361.77,-449.77 1336.47,-456.05 1239.11,-444 1154.75,-433.56 1058.25,-416.75 995.63,-405.19"/>
<polygon fill="black" stroke="black" points="996.3,-401.76 985.83,-403.38 995.03,-408.64 996.3,-401.76"/>
<text text-anchor="middle" x="1242.11" y="-430.7" font-family="Times New Roman,serif" font-size="14.00">?</text>
</g>
<!-- IND&#45;&gt;INC -->
<g id="edge10" class="edge">
<title>IND&#45;&gt;INC</title>
<path fill="none" stroke="black" d="M1493.15,-467.22C1445.09,-458.5 1386.47,-447.55 1375.11,-444 1321.27,-427.17 1259.11,-448.91 1259.11,-392.5 1259.11,-392.5 1259.11,-392.5 1259.11,-194 1259.11,-158.18 1229.82,-157.09 1197.11,-142.5 1142.91,-118.32 1075.54,-110.2 1026.33,-107.76"/>
<polygon fill="black" stroke="black" points="1026.51,-104.27 1016.37,-107.34 1026.22,-111.26 1026.51,-104.27"/>
<text text-anchor="middle" x="1262.11" y="-297.95" font-family="Times New Roman,serif" font-size="14.00">?</text>
</g>
<!-- AGR -->
<g id="node5" class="node">
<title>AGR</title>
<ellipse fill="none" stroke="black" cx="84.11" cy="-480" rx="84.11" ry="18"/>
<text text-anchor="middle" x="84.11" y="-474.95" font-family="Times New Roman,serif" font-size="14.00">Agric. employment</text>
</g>
<!-- AGR&#45;&gt;EUF -->
<g id="edge11" class="edge">
<title>AGR&#45;&gt;EUF</title>
<path fill="none" stroke="black" d="M144.51,-467.16C155.34,-465.26 166.54,-463.45 177.11,-462 421.26,-428.47 712.29,-406.71 849.73,-397.51"/>
<polygon fill="black" stroke="black" points="849.7,-401.02 859.45,-396.87 849.24,-394.04 849.7,-401.02"/>
<text text-anchor="middle" x="469.89" y="-430.7" font-family="Times New Roman,serif" font-size="14.00">+</text>
</g>
<!-- AGR&#45;&gt;INC -->
<g id="edge12" class="edge">
<title>AGR&#45;&gt;INC</title>
<path fill="none" stroke="black" d="M141.41,-466.58C178.96,-454.69 221.11,-432.44 221.11,-392.5 221.11,-392.5 221.11,-392.5 221.11,-194 221.11,-126.75 710.78,-111.66 892.39,-108.38"/>
<polygon fill="black" stroke="black" points="892.19,-111.89 902.12,-108.21 892.06,-104.89 892.19,-111.89"/>
<text text-anchor="middle" x="224.48" y="-297.95" font-family="Times New Roman,serif" font-size="14.00">–</text>
</g>
<!-- HPR -->
<g id="node6" class="node">
<title>HPR</title>
<ellipse fill="none" stroke="black" cx="267.11" cy="-480" rx="80.52" ry="18"/>
<text text-anchor="middle" x="267.11" y="-474.95" font-family="Times New Roman,serif" font-size="14.00">Heigh prest. empl.</text>
</g>
<!-- HPR&#45;&gt;EUF -->
<g id="edge13" class="edge">
<title>HPR&#45;&gt;EUF</title>
<path fill="none" stroke="black" d="M325.06,-467.15C335.69,-465.24 346.71,-463.42 357.11,-462 450.8,-449.21 475.91,-459.99 569.11,-444 597.74,-439.09 603.81,-432.88 632.36,-427.5 705.87,-413.64 790.73,-404.29 850.82,-398.77"/>
<polygon fill="black" stroke="black" points="850.97,-402.27 860.61,-397.88 850.34,-395.3 850.97,-402.27"/>
<text text-anchor="middle" x="635.73" y="-430.7" font-family="Times New Roman,serif" font-size="14.00">–</text>
</g>
<!-- HPR&#45;&gt;INC -->
<g id="edge14" class="edge">
<title>HPR&#45;&gt;INC</title>
<path fill="none" stroke="black" d="M290.92,-462.37C310.18,-446.78 334.11,-421.56 334.11,-392.5 334.11,-392.5 334.11,-392.5 334.11,-194 334.11,-138.07 731.86,-116.33 892.75,-109.82"/>
<polygon fill="black" stroke="black" points="892.55,-113.33 902.4,-109.44 892.27,-106.34 892.55,-113.33"/>
<text text-anchor="middle" x="338.23" y="-297.95" font-family="Times New Roman,serif" font-size="14.00">+</text>
</g>
<!-- PDENSE -->
<g id="node7" class="node">
<title>PDENSE</title>
<ellipse fill="none" stroke="black" cx="446.11" cy="-480" rx="80.01" ry="18"/>
<text text-anchor="middle" x="446.11" y="-474.95" font-family="Times New Roman,serif" font-size="14.00">Population density</text>
</g>
<!-- PDENSE&#45;&gt;EUF -->
<g id="edge15" class="edge">
<title>PDENSE&#45;&gt;EUF</title>
<path fill="none" stroke="black" d="M505.45,-467.54C515.35,-465.67 525.51,-463.76 535.11,-462 649.06,-441.07 781.78,-417.91 860.44,-404.31"/>
<polygon fill="black" stroke="black" points="860.89,-407.78 870.15,-402.63 859.7,-400.89 860.89,-407.78"/>
<text text-anchor="middle" x="722.6" y="-430.7" font-family="Times New Roman,serif" font-size="14.00">+</text>
</g>
<!-- PDENSE&#45;&gt;INC -->
<g id="edge16" class="edge">
<title>PDENSE&#45;&gt;INC</title>
<path fill="none" stroke="black" d="M446.74,-461.77C447.33,-444.31 448.11,-416.53 448.11,-392.5 448.11,-392.5 448.11,-392.5 448.11,-194 448.11,-149.31 755.85,-121.89 893.69,-111.85"/>
<polygon fill="black" stroke="black" points="893.67,-115.36 903.4,-111.15 893.17,-108.38 893.67,-115.36"/>
<text text-anchor="middle" x="452.23" y="-297.95" font-family="Times New Roman,serif" font-size="14.00">+</text>
</g>
<!-- POL&#45;&gt;EUF -->
<g id="edge24" class="edge">
<title>POL&#45;&gt;EUF</title>
<path fill="none" stroke="black" d="M867.09,-36.04C858.91,-53.11 848.11,-80.4 848.11,-105.5 848.11,-304 848.11,-304 848.11,-304 848.11,-331.12 869.58,-353.24 890.42,-368.33"/>
<polygon fill="black" stroke="black" points="888.38,-371.17 898.61,-373.9 892.31,-365.38 888.38,-371.17"/>
<text text-anchor="middle" x="852.23" y="-189.95" font-family="Times New Roman,serif" font-size="14.00">+</text>
</g>
<!-- BGR&#45;&gt;INC -->
<g id="edge4" class="edge">
<title>BGR&#45;&gt;INC</title>
<path fill="none" stroke="black" d="M981.26,-231.09C975.99,-225.88 970.99,-219.72 967.86,-213 956.6,-188.82 955.29,-158.15 956.27,-136.12"/>
<polygon fill="black" stroke="black" points="959.75,-136.58 956.91,-126.38 952.76,-136.13 959.75,-136.58"/>
<text text-anchor="middle" x="971.98" y="-189.95" font-family="Times New Roman,serif" font-size="14.00">+</text>
</g>
<!-- ECA -->
<g id="node11" class="node">
<title>ECA</title>
<ellipse fill="none" stroke="black" cx="1064.11" cy="-195" rx="78.99" ry="18"/>
<text text-anchor="middle" x="1064.11" y="-189.95" font-family="Times New Roman,serif" font-size="14.00">Economic activity</text>
</g>
<!-- INFR&#45;&gt;ECA -->
<g id="edge5" class="edge">
<title>INFR&#45;&gt;ECA</title>
<path fill="none" stroke="black" d="M1087.62,-286.65C1095.79,-281.66 1103.31,-275.22 1108.11,-267 1116.17,-253.18 1115.06,-245.41 1108.11,-231 1106.16,-226.96 1103.49,-223.25 1100.43,-219.87"/>
<polygon fill="black" stroke="black" points="1102.99,-217.46 1093.29,-213.2 1098.21,-222.58 1102.99,-217.46"/>
<text text-anchor="middle" x="1117.87" y="-243.95" font-family="Times New Roman,serif" font-size="14.00">+</text>
</g>
<!-- ECA&#45;&gt;INC -->
<g id="edge6" class="edge">
<title>ECA&#45;&gt;INC</title>
<path fill="none" stroke="black" d="M1043.86,-177.32C1027.83,-164.11 1005.23,-145.5 987.41,-130.81"/>
<polygon fill="black" stroke="black" points="989.69,-128.16 979.75,-124.5 985.24,-133.56 989.69,-128.16"/>
<text text-anchor="middle" x="1025.14" y="-145.7" font-family="Times New Roman,serif" font-size="14.00">+</text>
</g>
<!-- EDUC -->
<g id="node12" class="node">
<title>EDUC</title>
<ellipse fill="none" stroke="black" cx="1741.11" cy="-480" rx="72.34" ry="18"/>
<text text-anchor="middle" x="1741.11" y="-474.95" font-family="Times New Roman,serif" font-size="14.00">Education levels</text>
</g>
<!-- EDUC&#45;&gt;EUF -->
<g id="edge19" class="edge">
<title>EDUC&#45;&gt;EUF</title>
<path fill="none" stroke="black" d="M1688.77,-467.26C1678.95,-465.31 1668.74,-463.45 1659.11,-462 1424.1,-426.56 1143.64,-405.85 1008.99,-397.23"/>
<polygon fill="black" stroke="black" points="1009.31,-393.75 999.11,-396.61 1008.87,-400.73 1009.31,-393.75"/>
<text text-anchor="middle" x="1524.21" y="-430.7" font-family="Times New Roman,serif" font-size="14.00">+</text>
</g>
<!-- EDUC&#45;&gt;INC -->
<g id="edge20" class="edge">
<title>EDUC&#45;&gt;INC</title>
<path fill="none" stroke="black" d="M1699.57,-464.84C1653.66,-447.9 1586.11,-418.54 1586.11,-392.5 1586.11,-392.5 1586.11,-392.5 1586.11,-194 1586.11,-137.86 1186.61,-116.23 1025.39,-109.79"/>
<polygon fill="black" stroke="black" points="1025.84,-106.3 1015.71,-109.41 1025.57,-113.3 1025.84,-106.3"/>
<text text-anchor="middle" x="1590.23" y="-297.95" font-family="Times New Roman,serif" font-size="14.00">+</text>
</g>
<!-- SPILL -->
<g id="node13" class="node">
<title>SPILL</title>
<ellipse fill="none" stroke="black" cx="1177.11" cy="-480" rx="82.57" ry="18"/>
<text text-anchor="middle" x="1177.11" y="-474.95" font-family="Times New Roman,serif" font-size="14.00">Regional spillovers</text>
</g>
<!-- SPILL&#45;&gt;EUF -->
<g id="edge17" class="edge">
<title>SPILL&#45;&gt;EUF</title>
<path fill="none" stroke="black" d="M1132.91,-464.38C1114.34,-458.18 1092.52,-450.82 1072.86,-444 1041.57,-433.15 1006.59,-420.62 978.97,-410.64"/>
<polygon fill="black" stroke="black" points="980.4,-407.44 969.81,-407.33 978.02,-414.02 980.4,-407.44"/>
<text text-anchor="middle" x="1076.98" y="-430.7" font-family="Times New Roman,serif" font-size="14.00">+</text>
</g>
<!-- SPILL&#45;&gt;INC -->
<g id="edge18" class="edge">
<title>SPILL&#45;&gt;INC</title>
<path fill="none" stroke="black" d="M1175.21,-461.79C1173.45,-444.35 1171.11,-416.59 1171.11,-392.5 1171.11,-392.5 1171.11,-392.5 1171.11,-194 1171.11,-130.38 1088.25,-112.5 1026.14,-108.03"/>
<polygon fill="black" stroke="black" points="1026.51,-104.55 1016.32,-107.44 1026.09,-111.54 1026.51,-104.55"/>
<text text-anchor="middle" x="1175.23" y="-297.95" font-family="Times New Roman,serif" font-size="14.00">+</text>
</g>
<!-- EUCYCL -->
<g id="node14" class="node">
<title>EUCYCL</title>
<ellipse fill="none" stroke="black" cx="780.11" cy="-480" rx="80.01" ry="18"/>
<text text-anchor="middle" x="780.11" y="-474.95" font-family="Times New Roman,serif" font-size="14.00">EU funding cycles</text>
</g>
<!-- EUCYCL&#45;&gt;EUF -->
<g id="edge25" class="edge">
<title>EUCYCL&#45;&gt;EUF</title>
<path fill="none" stroke="black" d="M808.13,-462.73C831.72,-449.03 865.67,-429.33 891.6,-414.27"/>
<polygon fill="black" stroke="black" points="893.26,-417.36 900.15,-409.31 889.74,-411.3 893.26,-417.36"/>
<text text-anchor="middle" x="870.95" y="-430.7" font-family="Times New Roman,serif" font-size="14.00">?</text>
</g>
<!-- AEUF -->
<g id="node15" class="node">
<title>AEUF</title>
<ellipse fill="none" stroke="black" cx="977.11" cy="-480" rx="98.95" ry="18"/>
<text text-anchor="middle" x="977.11" y="-474.95" font-family="Times New Roman,serif" font-size="14.00">Awareness of EU funds</text>
</g>
<!-- AEUF&#45;&gt;EUF -->
<g id="edge26" class="edge">
<title>AEUF&#45;&gt;EUF</title>
<path fill="none" stroke="black" d="M967.62,-461.91C960.92,-449.83 951.79,-433.38 944.1,-419.53"/>
<polygon fill="black" stroke="black" points="947.22,-417.92 939.31,-410.88 941.1,-421.32 947.22,-417.92"/>
<text text-anchor="middle" x="961.53" y="-430.7" font-family="Times New Roman,serif" font-size="14.00">+</text>
</g>
<!-- BURQL -->
<g id="node16" class="node">
<title>BURQL</title>
<ellipse fill="none" stroke="black" cx="1364.11" cy="-480" rx="86.15" ry="18"/>
<text text-anchor="middle" x="1364.11" y="-474.95" font-family="Times New Roman,serif" font-size="14.00">Bureaucratic quality</text>
</g>
<!-- BURQL&#45;&gt;EUF -->
<g id="edge21" class="edge">
<title>BURQL&#45;&gt;EUF</title>
<path fill="none" stroke="black" d="M1301.6,-467.26C1290.78,-465.38 1279.63,-463.55 1269.11,-462 1200.83,-451.92 1181.09,-463.44 1114.86,-444 1098.84,-439.3 1096.85,-433.08 1081.11,-427.5 1054.31,-418 1023.92,-410.41 997.4,-404.75"/>
<polygon fill="black" stroke="black" points="998.27,-401.36 987.77,-402.76 996.85,-408.22 998.27,-401.36"/>
<text text-anchor="middle" x="1118.98" y="-430.7" font-family="Times New Roman,serif" font-size="14.00">+</text>
</g>
<!-- BURQL&#45;&gt;INC -->
<g id="edge22" class="edge">
<title>BURQL&#45;&gt;INC</title>
<path fill="none" stroke="black" d="M1296.28,-468.49C1278.32,-463.3 1259.85,-455.56 1245.11,-444 1224.26,-427.66 1215.11,-418.99 1215.11,-392.5 1215.11,-392.5 1215.11,-392.5 1215.11,-194 1215.11,-163.01 1195.32,-157.32 1168.11,-142.5 1124.6,-118.82 1069.03,-110.36 1026.14,-107.67"/>
<polygon fill="black" stroke="black" points="1026.36,-104.18 1016.19,-107.15 1025.99,-111.17 1026.36,-104.18"/>
<text text-anchor="middle" x="1219.23" y="-297.95" font-family="Times New Roman,serif" font-size="14.00">+</text>
</g>
</g>
</svg>
