<?xml version="1.0" encoding="UTF-8" standalone="no"?>
<!DOCTYPE svg PUBLIC "-//W3C//DTD SVG 1.1//EN"
 "http://www.w3.org/Graphics/SVG/1.1/DTD/svg11.dtd">
<!-- Generated by graphviz version 12.2.1 (20241206.2353)
 -->
<!-- Title: dag Pages: 1 -->
<svg width="1604pt" height="332pt"
 viewBox="0.00 0.00 1604.38 332.00" xmlns="http://www.w3.org/2000/svg" xmlns:xlink="http://www.w3.org/1999/xlink">
<g id="graph0" class="graph" transform="scale(1 1) rotate(0) translate(4 328)">
<title>dag</title>
<polygon fill="white" stroke="none" points="-4,4 -4,-328 1600.38,-328 1600.38,4 -4,4"/>
<!-- EUF -->
<g id="node1" class="node">
<title>EUF</title>
<ellipse fill="none" stroke="black" cx="786.11" cy="-234" rx="70.8" ry="18"/>
<text text-anchor="middle" x="786.11" y="-228.95" font-family="Times New Roman,serif" font-size="14.00">EU funding p.c.</text>
</g>
<!-- INC -->
<g id="node2" class="node">
<title>INC</title>
<ellipse fill="none" stroke="black" cx="791.11" cy="-90" rx="55.45" ry="18"/>
<text text-anchor="middle" x="791.11" y="-84.95" font-family="Times New Roman,serif" font-size="14.00">Income p.c.</text>
</g>
<!-- EUF&#45;&gt;INC -->
<g id="edge1" class="edge">
<title>EUF&#45;&gt;INC</title>
<path fill="none" stroke="black" d="M834.46,-220.44C855.05,-212.44 877.06,-199.74 889.11,-180 897.44,-166.34 897.3,-157.74 889.11,-144 878.84,-126.78 860.82,-114.81 843.01,-106.67"/>
<polygon fill="black" stroke="black" points="844.58,-103.53 834,-102.89 841.87,-109.99 844.58,-103.53"/>
</g>
<!-- BGR -->
<g id="node9" class="node">
<title>BGR</title>
<ellipse fill="none" stroke="black" cx="611.11" cy="-162" rx="72.34" ry="18"/>
<text text-anchor="middle" x="611.11" y="-156.95" font-family="Times New Roman,serif" font-size="14.00">Business growth</text>
</g>
<!-- EUF&#45;&gt;BGR -->
<g id="edge2" class="edge">
<title>EUF&#45;&gt;BGR</title>
<path fill="none" stroke="black" d="M749.42,-218.33C723.12,-207.8 687.43,-193.53 658.9,-182.12"/>
<polygon fill="black" stroke="black" points="660.34,-178.92 649.75,-178.46 657.74,-185.42 660.34,-178.92"/>
</g>
<!-- INFR -->
<g id="node10" class="node">
<title>INFR</title>
<ellipse fill="none" stroke="black" cx="791.11" cy="-162" rx="89.23" ry="18"/>
<text text-anchor="middle" x="791.11" y="-156.95" font-family="Times New Roman,serif" font-size="14.00">Infrastructure quality</text>
</g>
<!-- EUF&#45;&gt;INFR -->
<g id="edge3" class="edge">
<title>EUF&#45;&gt;INFR</title>
<path fill="none" stroke="black" d="M787.34,-215.7C787.86,-208.41 788.48,-199.73 789.07,-191.54"/>
<polygon fill="black" stroke="black" points="792.56,-191.84 789.78,-181.61 785.57,-191.34 792.56,-191.84"/>
</g>
<!-- MSPE -->
<g id="node15" class="node">
<title>MSPE</title>
<ellipse fill="none" stroke="black" cx="883.11" cy="-18" rx="94.86" ry="18"/>
<text text-anchor="middle" x="883.11" y="-12.95" font-family="Times New Roman,serif" font-size="14.00">Municipality spending</text>
</g>
<!-- EUF&#45;&gt;MSPE -->
<g id="edge25" class="edge">
<title>EUF&#45;&gt;MSPE</title>
<path fill="none" stroke="black" d="M841.89,-222.55C865.92,-214.98 891.75,-202.04 906.11,-180 932.67,-139.23 913.04,-80.38 897.38,-46.28"/>
<polygon fill="black" stroke="black" points="900.64,-44.99 893.15,-37.49 894.33,-48.02 900.64,-44.99"/>
</g>
<!-- POL -->
<g id="node8" class="node">
<title>POL</title>
<ellipse fill="none" stroke="black" cx="574.11" cy="-18" rx="71.31" ry="18"/>
<text text-anchor="middle" x="574.11" y="-12.95" font-family="Times New Roman,serif" font-size="14.00">Pro&#45;government</text>
</g>
<!-- INC&#45;&gt;POL -->
<g id="edge22" class="edge">
<title>INC&#45;&gt;POL</title>
<path fill="none" stroke="black" d="M752.81,-76.65C718,-65.42 666.29,-48.74 627.44,-36.21"/>
<polygon fill="black" stroke="black" points="628.88,-32.99 618.29,-33.25 626.73,-39.65 628.88,-32.99"/>
</g>
<!-- INC&#45;&gt;MSPE -->
<g id="edge26" class="edge">
<title>INC&#45;&gt;MSPE</title>
<path fill="none" stroke="black" d="M811.98,-73.12C823.87,-64.07 838.99,-52.57 852.23,-42.49"/>
<polygon fill="black" stroke="black" points="853.99,-45.55 859.83,-36.71 849.75,-39.98 853.99,-45.55"/>
</g>
<!-- UNEMP -->
<g id="node3" class="node">
<title>UNEMP</title>
<ellipse fill="none" stroke="black" cx="435.11" cy="-306" rx="69.26" ry="18"/>
<text text-anchor="middle" x="435.11" y="-300.95" font-family="Times New Roman,serif" font-size="14.00">Unemployment</text>
</g>
<!-- UNEMP&#45;&gt;EUF -->
<g id="edge6" class="edge">
<title>UNEMP&#45;&gt;EUF</title>
<path fill="none" stroke="black" d="M486.68,-293.59C495.49,-291.69 504.56,-289.76 513.11,-288 583.34,-273.53 663.96,-258.01 719.29,-247.53"/>
<polygon fill="black" stroke="black" points="719.69,-251.02 728.86,-245.72 718.39,-244.14 719.69,-251.02"/>
</g>
<!-- UNEMP&#45;&gt;INC -->
<g id="edge7" class="edge">
<title>UNEMP&#45;&gt;INC</title>
<path fill="none" stroke="black" d="M438.31,-287.69C445.48,-254.21 466.09,-180.64 514.11,-144 546.76,-119.08 655.59,-104.06 726.72,-96.67"/>
<polygon fill="black" stroke="black" points="726.69,-100.19 736.29,-95.7 725.99,-93.22 726.69,-100.19"/>
</g>
<!-- IND -->
<g id="node4" class="node">
<title>IND</title>
<ellipse fill="none" stroke="black" cx="1505.11" cy="-306" rx="91.27" ry="18"/>
<text text-anchor="middle" x="1505.11" y="-300.95" font-family="Times New Roman,serif" font-size="14.00">Industry employment</text>
</g>
<!-- IND&#45;&gt;EUF -->
<g id="edge8" class="edge">
<title>IND&#45;&gt;EUF</title>
<path fill="none" stroke="black" d="M1439.6,-293.06C1428.13,-291.2 1416.29,-289.43 1405.11,-288 1212.26,-263.39 984.11,-247.16 865.97,-239.71"/>
<polygon fill="black" stroke="black" points="866.25,-236.22 856.05,-239.09 865.82,-243.21 866.25,-236.22"/>
</g>
<!-- IND&#45;&gt;INC -->
<g id="edge9" class="edge">
<title>IND&#45;&gt;INC</title>
<path fill="none" stroke="black" d="M1463.91,-289.56C1381.56,-259.04 1190.42,-190.01 1026.11,-144 966.26,-127.24 896.72,-112.08 848.9,-102.31"/>
<polygon fill="black" stroke="black" points="849.81,-98.93 839.31,-100.37 848.42,-105.79 849.81,-98.93"/>
</g>
<!-- AGR -->
<g id="node5" class="node">
<title>AGR</title>
<ellipse fill="none" stroke="black" cx="84.11" cy="-306" rx="84.11" ry="18"/>
<text text-anchor="middle" x="84.11" y="-300.95" font-family="Times New Roman,serif" font-size="14.00">Agric. employment</text>
</g>
<!-- AGR&#45;&gt;EUF -->
<g id="edge10" class="edge">
<title>AGR&#45;&gt;EUF</title>
<path fill="none" stroke="black" d="M144.51,-293.11C155.33,-291.22 166.53,-289.42 177.11,-288 365.93,-262.58 589.41,-246.75 706.08,-239.56"/>
<polygon fill="black" stroke="black" points="706.1,-243.06 715.87,-238.96 705.67,-236.08 706.1,-243.06"/>
</g>
<!-- AGR&#45;&gt;INC -->
<g id="edge11" class="edge">
<title>AGR&#45;&gt;INC</title>
<path fill="none" stroke="black" d="M109.95,-288.61C163.58,-255.43 291.86,-180.38 410.11,-144 517.27,-111.03 647.73,-98.51 724.85,-93.8"/>
<polygon fill="black" stroke="black" points="725,-97.29 734.78,-93.22 724.6,-90.31 725,-97.29"/>
</g>
<!-- HPR -->
<g id="node6" class="node">
<title>HPR</title>
<ellipse fill="none" stroke="black" cx="267.11" cy="-306" rx="80.52" ry="18"/>
<text text-anchor="middle" x="267.11" y="-300.95" font-family="Times New Roman,serif" font-size="14.00">Heigh prest. empl.</text>
</g>
<!-- HPR&#45;&gt;EUF -->
<g id="edge12" class="edge">
<title>HPR&#45;&gt;EUF</title>
<path fill="none" stroke="black" d="M325.59,-293.39C336.07,-291.47 346.89,-289.59 357.11,-288 480.4,-268.76 624.53,-252.15 710.4,-242.88"/>
<polygon fill="black" stroke="black" points="710.53,-246.38 720.1,-241.83 709.79,-239.42 710.53,-246.38"/>
</g>
<!-- HPR&#45;&gt;INC -->
<g id="edge13" class="edge">
<title>HPR&#45;&gt;INC</title>
<path fill="none" stroke="black" d="M283.2,-288.02C316.12,-254.46 394.97,-179.76 477.11,-144 557.56,-108.97 658.95,-97 724.39,-92.97"/>
<polygon fill="black" stroke="black" points="724.48,-96.47 734.27,-92.41 724.09,-89.48 724.48,-96.47"/>
</g>
<!-- PDENSE -->
<g id="node7" class="node">
<title>PDENSE</title>
<ellipse fill="none" stroke="black" cx="602.11" cy="-306" rx="80.01" ry="18"/>
<text text-anchor="middle" x="602.11" y="-300.95" font-family="Times New Roman,serif" font-size="14.00">Population density</text>
</g>
<!-- PDENSE&#45;&gt;EUF -->
<g id="edge14" class="edge">
<title>PDENSE&#45;&gt;EUF</title>
<path fill="none" stroke="black" d="M641.58,-289.98C669.61,-279.32 707.41,-264.94 737.33,-253.56"/>
<polygon fill="black" stroke="black" points="738.44,-256.88 746.54,-250.05 735.95,-250.34 738.44,-256.88"/>
</g>
<!-- PDENSE&#45;&gt;INC -->
<g id="edge15" class="edge">
<title>PDENSE&#45;&gt;INC</title>
<path fill="none" stroke="black" d="M583.63,-288.14C551.7,-256.97 493,-189.4 530.11,-144 554.33,-114.37 656.35,-100.9 725.44,-95.08"/>
<polygon fill="black" stroke="black" points="725.45,-98.59 735.14,-94.3 724.89,-91.61 725.45,-98.59"/>
</g>
<!-- POL&#45;&gt;EUF -->
<g id="edge23" class="edge">
<title>POL&#45;&gt;EUF</title>
<path fill="none" stroke="black" d="M560.65,-36.07C537.29,-67.87 494.98,-136.86 530.11,-180 552.15,-207.07 640.16,-220.75 706.88,-227.35"/>
<polygon fill="black" stroke="black" points="706.44,-230.82 716.73,-228.28 707.1,-223.86 706.44,-230.82"/>
</g>
<!-- BGR&#45;&gt;INC -->
<g id="edge4" class="edge">
<title>BGR&#45;&gt;INC</title>
<path fill="none" stroke="black" d="M648.84,-146.33C677.12,-135.33 715.93,-120.23 745.88,-108.59"/>
<polygon fill="black" stroke="black" points="747.01,-111.9 755.06,-105.02 744.47,-105.38 747.01,-111.9"/>
</g>
<!-- INFR&#45;&gt;INC -->
<g id="edge5" class="edge">
<title>INFR&#45;&gt;INC</title>
<path fill="none" stroke="black" d="M791.11,-143.7C791.11,-136.41 791.11,-127.73 791.11,-119.54"/>
<polygon fill="black" stroke="black" points="794.61,-119.62 791.11,-109.62 787.61,-119.62 794.61,-119.62"/>
</g>
<!-- EDUC -->
<g id="node11" class="node">
<title>EDUC</title>
<ellipse fill="none" stroke="black" cx="950.11" cy="-306" rx="72.34" ry="18"/>
<text text-anchor="middle" x="950.11" y="-300.95" font-family="Times New Roman,serif" font-size="14.00">Education levels</text>
</g>
<!-- EDUC&#45;&gt;EUF -->
<g id="edge18" class="edge">
<title>EDUC&#45;&gt;EUF</title>
<path fill="none" stroke="black" d="M914.93,-289.98C890.6,-279.6 858.02,-265.7 831.71,-254.47"/>
<polygon fill="black" stroke="black" points="833.19,-251.29 822.62,-250.59 830.45,-257.73 833.19,-251.29"/>
</g>
<!-- EDUC&#45;&gt;INC -->
<g id="edge19" class="edge">
<title>EDUC&#45;&gt;INC</title>
<path fill="none" stroke="black" d="M949.97,-287.55C948.8,-255.43 941.98,-186.34 906.11,-144 890.55,-125.63 867.26,-113.28 845.7,-105.16"/>
<polygon fill="black" stroke="black" points="846.99,-101.9 836.39,-101.9 844.67,-108.51 846.99,-101.9"/>
</g>
<!-- SPILL -->
<g id="node12" class="node">
<title>SPILL</title>
<ellipse fill="none" stroke="black" cx="1123.11" cy="-306" rx="82.57" ry="18"/>
<text text-anchor="middle" x="1123.11" y="-300.95" font-family="Times New Roman,serif" font-size="14.00">Regional spillovers</text>
</g>
<!-- SPILL&#45;&gt;EUF -->
<g id="edge16" class="edge">
<title>SPILL&#45;&gt;EUF</title>
<path fill="none" stroke="black" d="M1064.79,-292.89C1005.2,-280.51 912.87,-261.33 851,-248.48"/>
<polygon fill="black" stroke="black" points="851.8,-245.07 841.3,-246.46 850.38,-251.93 851.8,-245.07"/>
</g>
<!-- SPILL&#45;&gt;INC -->
<g id="edge17" class="edge">
<title>SPILL&#45;&gt;INC</title>
<path fill="none" stroke="black" d="M1107.11,-288.26C1075.89,-256.39 1003.55,-186.43 931.11,-144 903.51,-127.84 870.1,-114.97 842.84,-105.96"/>
<polygon fill="black" stroke="black" points="843.99,-102.65 833.39,-102.92 841.84,-109.32 843.99,-102.65"/>
</g>
<!-- EUCYCL -->
<g id="node13" class="node">
<title>EUCYCL</title>
<ellipse fill="none" stroke="black" cx="780.11" cy="-306" rx="80.01" ry="18"/>
<text text-anchor="middle" x="780.11" y="-300.95" font-family="Times New Roman,serif" font-size="14.00">EU funding cycles</text>
</g>
<!-- EUCYCL&#45;&gt;EUF -->
<g id="edge24" class="edge">
<title>EUCYCL&#45;&gt;EUF</title>
<path fill="none" stroke="black" d="M781.59,-287.7C782.22,-280.41 782.96,-271.73 783.66,-263.54"/>
<polygon fill="black" stroke="black" points="787.14,-263.87 784.51,-253.61 780.17,-263.28 787.14,-263.87"/>
</g>
<!-- BURQL -->
<g id="node14" class="node">
<title>BURQL</title>
<ellipse fill="none" stroke="black" cx="1310.11" cy="-306" rx="86.15" ry="18"/>
<text text-anchor="middle" x="1310.11" y="-300.95" font-family="Times New Roman,serif" font-size="14.00">Bureaucratic quality</text>
</g>
<!-- BURQL&#45;&gt;EUF -->
<g id="edge20" class="edge">
<title>BURQL&#45;&gt;EUF</title>
<path fill="none" stroke="black" d="M1247.33,-293.27C1236.6,-291.41 1225.54,-289.58 1215.11,-288 1091.72,-269.35 947.62,-252.57 861.78,-243.09"/>
<polygon fill="black" stroke="black" points="862.4,-239.64 852.08,-242.03 861.64,-246.6 862.4,-239.64"/>
</g>
<!-- BURQL&#45;&gt;INC -->
<g id="edge21" class="edge">
<title>BURQL&#45;&gt;INC</title>
<path fill="none" stroke="black" d="M1279.96,-288.7C1221.6,-257.59 1088.58,-188.87 971.11,-144 929.6,-128.15 881.23,-114.14 845.09,-104.52"/>
<polygon fill="black" stroke="black" points="846.31,-101.22 835.75,-102.06 844.53,-107.99 846.31,-101.22"/>
</g>
</g>
</svg>
